<svg width="238" height="28" viewBox="0 0 238 28" fill="none" xmlns="http://www.w3.org/2000/svg">
<path d="M1.99996 15.7606H9.82591C12.1447 15.7606 14.0505 15.1447 15.5432 13.9128C17.0504 12.6809 17.804 11.0723 17.804 9.08679C17.804 4.57963 14.9563 2.32604 9.2607 2.32604H1.99996V15.7606ZM20.4779 27.6082H18.304L9.69547 17.6301H1.99996V27.6082H0V0.456513H9.2607C16.3185 0.456513 19.8475 3.33327 19.8475 9.08679C19.8475 11.3186 19.1011 13.2027 17.6084 14.7389C16.1301 16.2606 14.2244 17.1808 11.8911 17.4997L20.4779 27.3908V27.6082Z" fill="#181E22"/>
<path d="M28.6951 22.9996C30.4922 25.0865 33.0501 26.13 36.3689 26.13C39.6877 26.13 42.2456 25.0865 44.0427 22.9996C45.8398 20.9127 46.7383 17.9127 46.7383 13.9997C46.7383 10.0868 45.8398 7.09407 44.0427 5.02165C42.2456 2.92024 39.6877 1.86953 36.3689 1.86953C33.0501 1.86953 30.4922 2.91299 28.6951 4.99991C26.8981 7.08683 25.9995 10.0868 25.9995 13.9997C25.9995 17.9127 26.8981 20.9127 28.6951 22.9996ZM27.2169 3.65211C29.3763 1.21737 32.4269 0 36.3689 0C40.3109 0 43.3543 1.21737 45.4992 3.65211C47.6441 6.08685 48.7238 9.54331 48.7383 14.0215C48.7383 18.4997 47.6658 21.9561 45.5209 24.3909C43.3615 26.8256 40.3109 28.0285 36.3689 27.9995C32.4269 27.9995 29.3763 26.7966 27.2169 24.3909C25.072 21.9851 23.9996 18.5359 23.9996 14.0432C23.9996 9.55055 25.072 6.08685 27.2169 3.65211Z" fill="#181E22"/>
<path d="M71.2596 17.8475L65.564 5.04339C64.9988 3.71008 64.593 2.68111 64.3466 1.95649C64.2307 2.28981 63.8467 3.31878 63.1945 5.04339L57.4555 17.8475H71.2596ZM56.6946 19.7388L53.173 27.6082H50.9991L63.1075 0.456513H65.651L77.7594 27.6082H75.5638L72.0639 19.7388H56.6946Z" fill="#181E22"/>
<path d="M84.7811 25.7387H90.6071C94.3171 25.7387 97.2736 24.7314 99.4765 22.717C101.665 20.7025 102.759 17.7678 102.759 13.9128C102.759 10.0578 101.665 7.15929 99.4765 5.2173C97.2736 3.28979 94.3171 2.32604 90.6071 2.32604H84.7811V25.7387ZM82.7811 0.456513H90.6071C94.9693 0.471006 98.4257 1.59417 100.976 3.82602C103.527 6.05786 104.802 9.41287 104.802 13.8911C104.802 18.3692 103.542 21.775 101.02 24.1083C98.4837 26.4415 95.0128 27.6082 90.6071 27.6082H82.7811V0.456513Z" fill="#181E22"/>
<path d="M117.498 1.78258C115.686 1.78258 114.223 2.23909 113.107 3.15212C111.991 4.05065 111.433 5.2173 111.433 6.65205C111.433 8.07232 111.954 9.17375 112.998 9.95634C114.041 10.7389 116.179 11.6665 119.411 12.7389C122.643 13.8113 124.911 14.9273 126.215 16.0867C127.534 17.2316 128.193 18.9272 128.193 21.1735C128.193 23.4199 127.374 25.1227 125.737 26.2821C124.099 27.427 122.121 27.9995 119.802 27.9995C115.107 27.9995 111.194 26.5937 108.063 23.7822L109.041 22.2605C112.012 24.8691 115.483 26.1734 119.454 26.1734C123.904 26.1734 126.128 24.4706 126.128 21.0648C126.128 19.3982 125.585 18.1301 124.498 17.2606C123.425 16.3765 121.635 15.5215 119.128 14.6954C116.636 13.8693 114.962 13.2824 114.107 12.9345C113.252 12.5722 112.404 12.094 111.563 11.4998C110.737 10.9056 110.165 10.2245 109.846 9.45635C109.541 8.67375 109.389 7.70276 109.389 6.54336C109.389 4.61586 110.128 3.04342 111.607 1.82605C113.099 0.608684 115.063 0 117.498 0C120.991 0.0144925 124.193 0.760856 127.106 2.23909L126.454 3.82602C123.73 2.46372 120.744 1.78258 117.498 1.78258Z" fill="#181E22"/>
<path d="M151.867 2.32604H141.671V27.6082H139.671V2.32604H129.476V0.456513H151.867V2.32604Z" fill="#181E22"/>
<path d="M173.758 27.6082H156.128V0.456513H173.301V2.32604H158.128V12.8259H171.519V14.6954H158.128V25.7387H173.758V27.6082Z" fill="#181E22"/>
<path d="M182.475 15.7606H190.301C192.62 15.7606 194.525 15.1447 196.018 13.9128C197.525 12.6809 198.279 11.0723 198.279 9.08679C198.279 4.57963 195.431 2.32604 189.736 2.32604H182.475V15.7606ZM200.953 27.6082H198.779L190.17 17.6301H182.475V27.6082H180.475V0.456513H189.736C196.794 0.456513 200.322 3.33327 200.322 9.08679C200.322 11.3186 199.576 13.2027 198.083 14.7389C196.605 16.2606 194.699 17.1808 192.366 17.4997L200.953 27.3908V27.6082Z" fill="#181E22"/>
<path d="M237.278 27.6082H234.8L226.322 15.7171C225.96 15.2099 225.742 14.8838 225.67 14.7389C225.583 14.8838 225.358 15.2099 224.996 15.7171L216.496 27.6082H214.04L224.061 13.6302L214.409 0.456513H216.887L224.996 11.4563C225.257 11.8476 225.481 12.1882 225.67 12.478C225.844 12.1882 226.061 11.8476 226.322 11.4563L234.431 0.456513H236.887L227.213 13.6302L237.278 27.6082Z" fill="#181E22"/>
</svg>
