<svg width="34" height="38" viewBox="0 0 34 38" fill="none" xmlns="http://www.w3.org/2000/svg">
<path d="M31.6349 24.8376V13.1631C32.5154 12.8405 33.1539 12.0004 33.1539 11.0057C33.1539 9.73539 32.1189 8.70034 30.8486 8.70034C30.284 8.70034 29.7732 8.9087 29.3767 9.24475L19.2682 3.41086C19.2883 3.28316 19.3085 3.14873 19.3085 3.01431C19.3085 1.74403 18.2734 0.708984 17.0032 0.708984C15.7329 0.708984 14.6978 1.74403 14.6978 3.01431C14.6978 3.14873 14.718 3.28316 14.7382 3.41086L4.62966 9.24475C4.2264 8.9087 3.72232 8.70034 3.15775 8.70034C1.88746 8.70034 0.852417 9.73539 0.852417 11.0057C0.852417 12.0004 1.4842 12.8405 2.37138 13.1631V24.8376C1.4842 25.1603 0.852417 26.0004 0.852417 26.9951C0.852417 28.2654 1.88746 29.3004 3.15775 29.3004C3.72232 29.3004 4.23312 29.0921 4.62966 28.756L14.7382 34.5899C14.718 34.7176 14.6978 34.852 14.6978 34.9865C14.6978 36.2568 15.7329 37.2918 17.0032 37.2918C18.2734 37.2918 19.3085 36.2568 19.3085 34.9865C19.3085 34.852 19.2883 34.7176 19.2682 34.5899L29.3767 28.756C29.7799 29.0921 30.284 29.3004 30.8486 29.3004C32.1189 29.3004 33.1539 28.2654 33.1539 26.9951C33.1539 26.0004 32.5221 25.1603 31.6349 24.8376ZM28.5432 26.9951C28.5432 27.1295 28.5634 27.264 28.5836 27.3917L18.4751 33.2255C18.2734 33.0575 18.0449 32.9164 17.7895 32.829V21.0873C18.67 20.7647 19.3085 19.9245 19.3085 18.9298C19.3085 18.8156 19.2883 18.708 19.2749 18.6005L29.3767 12.7666C29.5783 12.9346 29.8068 13.0758 30.0622 13.1631V24.8376C29.1817 25.1603 28.5432 26.0004 28.5432 26.9951ZM3.94411 24.8376V13.1631C4.19951 13.069 4.42803 12.9346 4.62966 12.7666L14.7314 18.6005C14.718 18.708 14.6978 18.8156 14.6978 18.9298C14.6978 19.9245 15.3296 20.7647 16.2168 21.0873V32.829C15.9614 32.9231 15.7329 33.0575 15.5312 33.2255L5.42275 27.3917C5.44291 27.264 5.46307 27.1295 5.46307 26.9951C5.46307 26.0004 4.83129 25.1603 3.94411 24.8376ZM16.9964 5.31964C17.561 5.31964 18.0718 5.11129 18.4684 4.77523L28.5769 10.6091C28.5567 10.7368 28.5365 10.8713 28.5365 11.0057C28.5365 11.1401 28.5567 11.2745 28.5769 11.4022L18.5221 17.2092C18.1121 16.8463 17.5879 16.6245 16.9964 16.6245C16.405 16.6245 15.8807 16.853 15.4708 17.2159L5.41603 11.4089C5.43619 11.2812 5.45635 11.1468 5.45635 11.0124C5.45635 10.878 5.43619 10.7435 5.41603 10.6158L15.5245 4.78196C15.9278 5.11801 16.4319 5.32636 16.9964 5.32636V5.31964Z" fill="#41515C"/>
</svg>
